# xmcd CD database file generated by OrangeCD 6.1
#
# Track frame offsets:
#	150
#	17244
#	32520
#	48472
#	74239
#	93543
#	108525
#	125801
#	142177
#	156040
#	167536
#	187281
#	202704
#	226641
#	243449
#	264620
#	277919
#	291874
#	310762
#	329911
#	344360
#
# Disc length: 4751 seconds
#
# Revision: 1
# Processed by: cddbd v1.5.2PL0 Copyright (c) Steve Scherf et al.
# Submitted via: OrangeCD 6.1
#
DISCID=44128d15
DTITLE=Various Artist - Easy Rock Volume 3
DYEAR=2008
DGENRE=Dance Easy Rock
TTITLE0=Frank Sinatra - I've Got You Under My Skin
TTITLE1=Frank Sinatra - You Make Me Fell So Young
TTITLE2=Nat King Cole and Natalie Cole - Unforegettable
TTITLE3=George Benson - Breezin'
TTITLE4=Julio Ingelias - Moonlight Lady
TTITLE5=Julio Ingelias - Crazy
TTITLE6=Rod Stewart - These Foolish Things
TTITLE7=Rod Stewart With Chaka Khan - You Send Me
TTITLE8=Anne Murray - A Fool Such As I
TTITLE9=Dinah Washington - What A Diff'rence A Day Makes
TTITLE10=Grover Washington Jr. - Soulful Strut
TTITLE11=Four Tops - When She Was My Girl
TTITLE12=Tina Turner - Let's Stay Togrther
TTITLE13=Ray Charles - Georgia On My Mind
TTITLE14=Paul Simon - You Can Call Me Al
TTITLE15=Elvis Presley - Love Letters
TTITLE16=Elvis Presley - Can't Help Falling In Love
TTITLE17=Kenny G and David Benoit - Don't Know Why
TTITLE18=Simply Red - Holding Back The Years
TTITLE19=Bill Doggett - Honky Tonk Part 1
TTITLE20=Bill Doggett - Honky Tonk Part 2
EXTD=
EXTT0=
EXTT1=
EXTT2=
EXTT3=
EXTT4=
EXTT5=
EXTT6=
EXTT7=
EXTT8=
EXTT9=
EXTT10=
EXTT11=
EXTT12=
EXTT13=
EXTT14=
EXTT15=
EXTT16=
EXTT17=
EXTT18=
EXTT19=
EXTT20=
PLAYORDER=
